<?xml version="1.0" standalone="no"?><!DOCTYPE svg PUBLIC "-//W3C//DTD SVG 1.1//EN" "http://www.w3.org/Graphics/SVG/1.1/DTD/svg11.dtd"><svg t="1605539234286" class="icon" viewBox="0 0 1024 1024" version="1.1" xmlns="http://www.w3.org/2000/svg" p-id="3585" xmlns:xlink="http://www.w3.org/1999/xlink" width="32" height="32"><defs><style type="text/css"></style></defs><path d="M512 21.333333C228.266667 21.333333 0 202.666667 0 450.133333c0 151.466667 85.333333 264.533333 213.333333 345.6 12.8 8.533333 21.333333 21.333333 21.333334 36.266667v149.333333c0 12.8 10.666667 21.333333 21.333333 21.333334 4.266667 0 10.666667-2.133333 14.933333-6.4l117.333334-110.933334c8.533333-8.533333 19.2-10.666667 29.866666-10.666666h6.4c27.733333 4.266667 57.6 6.4 87.466667 6.4 283.733333 0 512-181.333333 512-428.8C1024 202.666667 795.733333 21.333333 512 21.333333zM298.666667 514.133333c-23.466667 0-42.666667-19.2-42.666667-42.666666s19.2-42.666667 42.666667-42.666667 42.666667 19.2 42.666666 42.666667-19.2 42.666667-42.666666 42.666666z m213.333333 0c-23.466667 0-42.666667-19.2-42.666667-42.666666s19.2-42.666667 42.666667-42.666667 42.666667 19.2 42.666667 42.666667-19.2 42.666667-42.666667 42.666666z m213.333333 0c-23.466667 0-42.666667-19.2-42.666666-42.666666s19.2-42.666667 42.666666-42.666667 42.666667 19.2 42.666667 42.666667-19.2 42.666667-42.666667 42.666666z" fill="#ffffff" p-id="3586"></path></svg>